<?xml version="1.0" ?><svg data-name="Слой 1" id="Слой_1" viewBox="0 0 32 32" xmlns="http://www.w3.org/2000/svg"><path d="M13.3287,25.8706H11.03a.3412.3412,0,0,1-.3134-.4756l3.1621-7.376h-3.81L7.1617,20.4712a.3436.3436,0,0,1-.22.08H5.4205A.3406.3406,0,0,1,5.1,20.0942l1.479-4.0927L5.1,11.9058a.3406.3406,0,0,1,.3208-.4571h1.521a.3426.3426,0,0,1,.22.08l2.9077,2.4551h3.81L10.7169,6.605a.3412.3412,0,0,1,.3134-.4756h2.2984a.3389.3389,0,0,1,.2685.1309l6.042,7.7236h3.8955c2.9722,0,3.3648,1.874,3.38,1.9531a.3368.3368,0,0,1,0,.1289c-.0151.0791-.4077,1.9531-3.38,1.9531H19.6392L13.5972,25.74A.3389.3389,0,0,1,13.3287,25.8706Zm-1.7808-.6816h1.6143l6.042-7.7207a.3392.3392,0,0,1,.2685-.1309h4.062c2.1123,0,2.6006-1.0615,2.6914-1.3359-.0913-.2774-.5791-1.336-2.6914-1.336h-4.062a.3391.3391,0,0,1-.2685-.1308L13.1622,6.811H11.5479L14.71,14.19a.3412.3412,0,0,1-.3135.4756H9.9444a.3418.3418,0,0,1-.22-.08L6.8165,12.13h-.91l1.356,3.7549a.34.34,0,0,1,0,.2324L5.9068,19.87h.91l2.9072-2.4521a.3428.3428,0,0,1,.22-.08h4.4521a.3412.3412,0,0,1,.3135.4756Z"/></svg>